PathFileType	4	(X/Y/Z)	C:\Users\86182\Documents\cortex\Trimmed_M4_L5.trc
DataRate	CameraRate	NumFrames	NumMarkers	Units	OrigDataRate	OrigDataStartFrame	OrigNumFrames
100.00	100.00	       70	2	mm	100.00	361	       901
Frame#	Time	gripper			box			
		X1	Y1	Z1	X2	Y2	Z2	

361	3.600	276.16278	151.22919	292.50974	276.54089	149.51280	156.63376	
362	3.610	276.16632	151.23059	292.51129	276.54822	149.50777	156.63295	
363	3.620	276.16513	151.22940	292.51370	276.55536	149.50287	156.63191	
364	3.630	276.15930	151.22571	292.51697	276.56110	149.49890	156.63097	
365	3.640	276.15076	151.22054	292.52081	276.56473	149.49625	156.63048	
366	3.650	276.14252	151.21556	292.52466	276.56638	149.49475	156.63068	
367	3.660	276.13751	151.21242	292.52777	276.56711	149.49377	156.63145	
368	3.670	276.13745	151.21207	292.52960	276.56808	149.49278	156.63257	
369	3.680	276.14227	151.21460	292.52942	276.56982	149.49152	156.63379	
370	3.690	276.15051	151.21942	292.52655	276.57199	149.49020	156.63506	
371	3.700	276.16028	151.22560	292.52087	276.57358	149.48930	156.63622	
372	3.710	276.16971	151.23207	292.51294	276.57346	149.48950	156.63713	
373	3.720	276.17764	151.23798	292.50403	276.57059	149.49139	156.63759	
374	3.730	276.18396	151.24294	292.49579	276.56473	149.49516	156.63750	
375	3.740	276.18939	151.24692	292.48993	276.55707	149.50002	156.63708	
376	3.750	276.19510	151.25026	292.48776	276.54953	149.50461	156.63669	
377	3.760	276.20212	151.25334	292.48996	276.54398	149.50783	156.63649	
378	3.770	276.21097	151.25644	292.49652	276.54141	149.50911	156.63661	
379	3.780	276.22131	151.25957	292.50653	276.54230	149.50829	156.63702	
380	3.790	276.23175	151.26236	292.51834	276.54620	149.50557	156.63773	
381	3.800	276.24051	151.26439	292.52969	276.55200	149.50174	156.63857	
382	3.810	276.24680	151.26561	292.53897	276.55786	149.49789	156.63936	
383	3.820	276.25113	151.26642	292.54553	276.56219	149.49506	156.63977	
384	3.830	276.25476	151.26741	292.54953	276.56412	149.49374	156.63957	
385	3.840	276.25879	151.26903	292.55157	276.56369	149.49394	156.63878	
386	3.850	276.26352	151.27132	292.55212	276.56177	149.49516	156.63768	
387	3.860	276.26797	151.27377	292.55112	276.55978	149.49643	156.63658	
388	3.870	276.26987	151.27539	292.54810	276.55927	149.49670	156.63574	
389	3.880	276.26691	151.27509	292.54236	276.56107	149.49542	156.63535	
390	3.890	276.25830	151.27254	292.53381	276.56506	149.49268	156.63548	
391	3.900	276.24557	151.26836	292.52313	276.57080	149.48886	156.63615	
392	3.910	276.23178	151.26382	292.51147	276.57745	149.48450	156.63727	
393	3.920	276.21976	151.26010	292.50031	276.58374	149.48042	156.63852	
394	3.930	276.21124	151.25781	292.49072	276.58798	149.47769	156.63956	
395	3.940	276.20676	151.25705	292.48352	276.58875	149.47728	156.64009	
396	3.950	276.20535	151.25735	292.47870	276.58551	149.47949	156.64000	
397	3.960	276.20526	151.25789	292.47595	276.57895	149.48390	156.63945	
398	3.970	276.20490	151.25792	292.47485	276.57068	149.48950	156.63878	
399	3.980	276.20398	151.25737	292.47537	276.56247	149.49515	156.63832	
400	3.990	276.20404	151.25690	292.47775	276.55569	149.49998	156.63826	
401	4.000	276.20709	151.25745	292.48245	276.55087	149.50363	156.63850	
402	4.010	276.21478	151.25977	292.48990	276.54782	149.50613	156.63882	
403	4.020	276.22745	151.26404	292.50012	276.54593	149.50780	156.63885	
404	4.030	276.24402	151.26981	292.51245	276.54492	149.50861	156.63834	
405	4.040	276.26144	151.27592	292.52533	276.54541	149.50812	156.63736	
406	4.050	276.27588	151.28085	292.53668	276.54782	149.50600	156.63617	
407	4.060	276.28442	151.28342	292.54492	276.55188	149.50256	156.63503	
408	4.070	276.28601	151.28326	292.54947	276.55664	149.49861	156.63409	
409	4.080	276.28171	151.28084	292.55063	276.56128	149.49481	156.63350	
410	4.090	276.27417	151.27730	292.54932	276.56546	149.49152	156.63326	
411	4.100	276.26648	151.27397	292.54651	276.56903	149.48883	156.63336	
412	4.110	276.26077	151.27180	292.54303	276.57187	149.48691	156.63383	
413	4.120	276.25735	151.27094	292.53888	276.57382	149.48589	156.63466	
414	4.130	276.25491	151.27078	292.53366	276.57480	149.48578	156.63576	
415	4.140	276.25137	151.27046	292.52673	276.57462	149.48666	156.63701	
416	4.150	276.24496	151.26910	292.51782	276.57309	149.48854	156.63817	
417	4.160	276.23523	151.26636	292.50757	276.57056	149.49103	156.63901	
418	4.170	276.22357	151.26268	292.49728	276.56757	149.49358	156.63934	
419	4.180	276.21249	151.25902	292.48846	276.56458	149.49579	156.63916	
420	4.190	276.20435	151.25639	292.48203	276.56186	149.49754	156.63853	
421	4.200	276.20047	151.25540	292.47833	276.55972	149.49869	156.63766	
422	4.210	276.20132	151.25627	292.47742	276.55835	149.49919	156.63676	
423	4.220	276.20645	151.25876	292.47906	276.55783	149.49918	156.63605	
424	4.230	276.21466	151.26225	292.48297	276.55804	149.49875	156.63570	
425	4.240	276.22415	151.26582	292.48877	276.55905	149.49794	156.63571	
426	4.250	276.23325	151.26857	292.49585	276.56104	149.49651	156.63599	
427	4.260	276.24106	151.26997	292.50342	276.56393	149.49435	156.63625	
428	4.270	276.24802	151.27022	292.51065	276.56693	149.49197	156.63626	
429	4.280	276.25558	151.26999	292.51666	276.56906	149.49004	156.63591	
430	4.290	276.26523	151.27013	292.52072	276.57010	149.48882	156.63528	
